<svg width="32" height="32" viewBox="0 0 32 32" fill="none" xmlns="http://www.w3.org/2000/svg">
<path d="M25.4934 12.1599C24.9734 12.1599 24.56 12.5733 24.56 13.0933V15.1999C24.56 19.9199 20.72 23.7599 16 23.7599C11.28 23.7599 7.44003 19.9199 7.44003 15.1999V13.0799C7.44003 12.5599 7.0267 12.1466 6.5067 12.1466C5.9867 12.1466 5.57336 12.5599 5.57336 13.0799V15.1866C5.57336 20.6133 9.7467 25.0799 15.0667 25.5599V28.3999C15.0667 28.9199 15.48 29.3333 16 29.3333C16.52 29.3333 16.9334 28.9199 16.9334 28.3999V25.5599C22.24 25.0933 26.4267 20.6133 26.4267 15.1866V13.0799C26.4208 12.8355 26.3202 12.6029 26.1461 12.4312C25.9719 12.2596 25.7379 12.1623 25.4934 12.1599Z" fill="#0A77FF"/>
<path d="M15.9973 2.66663C12.744 2.66663 10.104 5.30663 10.104 8.55996V15.3866C10.104 18.64 12.744 21.28 15.9973 21.28C19.2507 21.28 21.8907 18.64 21.8907 15.3866V8.55996C21.8907 5.30663 19.2507 2.66663 15.9973 2.66663ZM17.744 11.9333C17.6507 12.28 17.344 12.5066 16.9973 12.5066C16.9307 12.5066 16.864 12.4933 16.7973 12.48C16.2773 12.3333 15.7307 12.3333 15.2107 12.48C14.784 12.6 14.3707 12.3466 14.264 11.9333C14.144 11.52 14.3973 11.0933 14.8107 10.9866C15.5973 10.7733 16.424 10.7733 17.2107 10.9866C17.6107 11.0933 17.8507 11.52 17.744 11.9333ZM18.4507 9.34663C18.3957 9.49642 18.2956 9.62553 18.1643 9.71624C18.0331 9.80695 17.8769 9.85482 17.7173 9.85329C17.624 9.85329 17.544 9.83996 17.4507 9.81329C16.5173 9.46663 15.4773 9.46663 14.544 9.81329C14.3494 9.88228 14.1355 9.87202 13.9485 9.78471C13.7614 9.69741 13.6161 9.54007 13.544 9.34663C13.3973 8.94663 13.6107 8.49329 14.0107 8.35996C15.294 7.89329 16.7007 7.89329 17.984 8.35996C18.384 8.50663 18.5973 8.94663 18.4507 9.34663Z" fill="#0A77FF"/>
</svg>
