<svg width="27" height="27" viewBox="0 0 27 27" fill="none" xmlns="http://www.w3.org/2000/svg">
<path d="M19.1565 0H7.8435C2.9295 0 0 2.9295 0 7.8435V19.143C0 24.0705 2.9295 27 7.8435 27H19.143C24.057 27 26.9865 24.0705 26.9865 19.1565V7.8435C27 2.9295 24.0705 0 19.1565 0ZM12.0825 20.9385C11.691 21.33 10.9485 21.708 10.4085 21.789L7.0875 22.2615C6.966 22.275 6.8445 22.2885 6.723 22.2885C6.1695 22.2885 5.6565 22.0995 5.292 21.735C4.8465 21.2895 4.6575 20.6415 4.7655 19.926L5.238 16.605C5.319 16.0515 5.6835 15.3225 6.0885 14.931L12.1095 8.91C12.3241 9.51471 12.5953 10.0978 12.9195 10.6515C13.0545 10.881 13.203 11.097 13.3245 11.259C13.473 11.4885 13.6485 11.7045 13.7565 11.826C13.824 11.9205 13.878 11.988 13.905 12.015C14.2425 12.42 14.634 12.798 14.9715 13.0815C15.066 13.176 15.12 13.23 15.147 13.2435C15.3495 13.4055 15.552 13.5675 15.7275 13.689C15.9435 13.851 16.1595 13.9995 16.389 14.121C16.659 14.283 16.956 14.4315 17.253 14.58C17.5635 14.715 17.847 14.8365 18.1305 14.931L12.0825 20.9385ZM20.7495 12.2715L19.5075 13.527C19.4684 13.5658 19.4221 13.5965 19.3711 13.6173C19.3201 13.6382 19.2656 13.6488 19.2105 13.6485C19.17 13.6485 19.116 13.6485 19.089 13.635C17.7329 13.2419 16.4982 12.5122 15.4997 11.5138C14.5013 10.5153 13.7716 9.28064 13.3785 7.9245C13.338 7.776 13.3785 7.614 13.4865 7.5195L14.742 6.264C16.794 4.212 18.7515 4.2525 20.763 6.264C21.789 7.29 22.2885 8.2755 22.2885 9.3015C22.275 10.2735 21.7755 11.2455 20.7495 12.2715Z" fill="#509EE5"/>
</svg>
