<svg width="32" height="32" viewBox="0 0 32 32" fill="none" xmlns="http://www.w3.org/2000/svg">
<path d="M27.4947 11.2666C26.0947 5.10665 20.7213 2.33331 16.0013 2.33331H15.988C11.2813 2.33331 5.89468 5.09331 4.49468 11.2533C2.93468 18.1333 7.14801 23.96 10.9613 27.6266C12.313 28.9349 14.1203 29.6664 16.0013 29.6666C17.8147 29.6666 19.628 28.9866 21.028 27.6266C24.8413 23.96 29.0547 18.1466 27.4947 11.2666ZM16.0013 17.9466C15.4498 17.9466 14.9036 17.838 14.3941 17.6269C13.8845 17.4159 13.4215 17.1065 13.0315 16.7165C12.6415 16.3265 12.3321 15.8635 12.1211 15.3539C11.91 14.8443 11.8013 14.2982 11.8013 13.7466C11.8013 13.1951 11.91 12.6489 12.1211 12.1394C12.3321 11.6298 12.6415 11.1668 13.0315 10.7768C13.4215 10.3868 13.8845 10.0774 14.3941 9.86635C14.9036 9.65528 15.4498 9.54665 16.0013 9.54665C17.1153 9.54665 18.1835 9.98915 18.9712 10.7768C19.7588 11.5645 20.2013 12.6327 20.2013 13.7466C20.2013 14.8606 19.7588 15.9288 18.9712 16.7165C18.1835 17.5041 17.1153 17.9466 16.0013 17.9466Z" fill="#8DBAEF"/>
</svg>
