<svg width="32" height="32" viewBox="0 0 32 32" fill="none" xmlns="http://www.w3.org/2000/svg">
<path d="M25.4118 10.8235H19.7647M10.353 10.8235H6.58826M25.4118 21.1765H21.6471M12.2353 21.1765H6.58826M14.1177 14.1177C14.5503 14.1177 14.9786 14.0325 15.3783 13.8669C15.7779 13.7014 16.1411 13.4587 16.447 13.1528C16.7528 12.8469 16.9955 12.4838 17.161 12.0841C17.3266 11.6845 17.4118 11.2561 17.4118 10.8235C17.4118 10.3909 17.3266 9.96259 17.161 9.56293C16.9955 9.16327 16.7528 8.80013 16.447 8.49424C16.1411 8.18836 15.7779 7.94571 15.3783 7.78017C14.9786 7.61462 14.5503 7.52942 14.1177 7.52942C13.244 7.52942 12.4061 7.87648 11.7884 8.49424C11.1706 9.11201 10.8236 9.94988 10.8236 10.8235C10.8236 11.6972 11.1706 12.5351 11.7884 13.1528C12.4061 13.7706 13.244 14.1177 14.1177 14.1177ZM17.8824 24.4706C18.756 24.4706 19.5939 24.1235 20.2117 23.5058C20.8294 22.888 21.1765 22.0501 21.1765 21.1765C21.1765 20.3028 20.8294 19.465 20.2117 18.8472C19.5939 18.2294 18.756 17.8824 17.8824 17.8824C17.0087 17.8824 16.1708 18.2294 15.5531 18.8472C14.9353 19.465 14.5883 20.3028 14.5883 21.1765C14.5883 22.0501 14.9353 22.888 15.5531 23.5058C16.1708 24.1235 17.0087 24.4706 17.8824 24.4706Z" stroke="#736CFB" stroke-width="2.5" stroke-miterlimit="10" stroke-linecap="round" stroke-linejoin="round"/>
</svg>
