<svg width="32" height="32" viewBox="0 0 32 32" fill="none" xmlns="http://www.w3.org/2000/svg">
<path d="M16 24V16M16 16L12 18.6667M16 16L20 18.6667M17.3334 4.00116C17.206 4 17.0631 4 16.8996 4H10.9336C9.44014 4 8.69285 4 8.12242 4.29065C7.62065 4.54631 7.213 4.95396 6.95734 5.45573C6.66669 6.02616 6.66669 6.77345 6.66669 8.26693V23.7336C6.66669 25.2271 6.66669 25.9734 6.95734 26.5438C7.213 27.0456 7.62065 27.454 8.12242 27.7096C8.6923 28 9.43869 28 10.9293 28L21.0708 28C22.5614 28 23.3067 28 23.8765 27.7096C24.3783 27.454 24.7873 27.0456 25.043 26.5438C25.3334 25.974 25.3334 25.2287 25.3334 23.7381V12.4342C25.3334 12.2706 25.3333 12.1275 25.3321 12M17.3334 4.00116C17.7142 4.00463 17.9551 4.01846 18.1851 4.07368C18.4572 4.139 18.7172 4.24702 18.9557 4.39323C19.2248 4.55809 19.4558 4.78909 19.9167 5.25L24.084 9.41731C24.5452 9.87852 24.7745 10.1085 24.9394 10.3776C25.0856 10.6162 25.1938 10.8763 25.2591 11.1484C25.3143 11.3783 25.3285 11.6193 25.3321 12M17.3334 4.00116V7.73333C17.3334 9.22681 17.3334 9.97302 17.624 10.5435C17.8797 11.0452 18.2873 11.454 18.7891 11.7096C19.359 12 20.1054 12 21.5959 12H25.3321M25.3321 12H25.3336" stroke="#0A77FF" stroke-width="2.5" stroke-linecap="round" stroke-linejoin="round"/>
</svg>
