<svg width="32" height="32" viewBox="0 0 32 32" fill="none" xmlns="http://www.w3.org/2000/svg">
<path d="M2.66669 26.6667H5.33335M5.33335 26.6667H16M5.33335 26.6667V9.6003C5.33335 8.10683 5.33335 7.35953 5.624 6.7891C5.87967 6.28734 6.28732 5.87969 6.78908 5.62402C7.35951 5.33337 8.10681 5.33337 9.60028 5.33337H11.7336C13.2271 5.33337 13.9734 5.33337 14.5439 5.62402C15.0456 5.87969 15.454 6.28734 15.7097 6.7891C16 7.35898 16 8.10537 16 9.59592V13.6615M16 26.6667H26.6667M16 26.6667V13.6615M26.6667 26.6667H29.3334M26.6667 26.6667V19.1576C26.6667 18.4573 26.6667 18.1066 26.5827 17.78C26.5083 17.4904 26.3852 17.2158 26.2196 16.9669C26.0327 16.6861 25.7727 16.4518 25.2516 15.9836L22.1849 13.2286C21.1769 12.323 20.6727 11.8704 20.1029 11.6986C19.601 11.5473 19.0654 11.5473 18.5635 11.6986C17.9937 11.8704 17.4897 12.3232 16.4819 13.2286L16 13.6615" stroke="#9A9A9A" stroke-width="2.5" stroke-linecap="round" stroke-linejoin="round"/>
</svg>
