<svg width="28" height="28" viewBox="0 0 28 28" fill="none" xmlns="http://www.w3.org/2000/svg">
<path d="M14 2.33331C7.57171 2.33331 2.33337 7.57165 2.33337 14C2.33337 20.4283 7.57171 25.6666 14 25.6666C20.4284 25.6666 25.6667 20.4283 25.6667 14C25.6667 7.57165 20.4284 2.33331 14 2.33331ZM18.6667 14.875H14.875V18.6666C14.875 19.145 14.4784 19.5416 14 19.5416C13.5217 19.5416 13.125 19.145 13.125 18.6666V14.875H9.33337C8.85504 14.875 8.45837 14.4783 8.45837 14C8.45837 13.5216 8.85504 13.125 9.33337 13.125H13.125V9.33331C13.125 8.85498 13.5217 8.45831 14 8.45831C14.4784 8.45831 14.875 8.85498 14.875 9.33331V13.125H18.6667C19.145 13.125 19.5417 13.5216 19.5417 14C19.5417 14.4783 19.145 14.875 18.6667 14.875Z" fill="#838383"/>
</svg>
