<svg width="32" height="33" viewBox="0 0 32 33" fill="none" xmlns="http://www.w3.org/2000/svg">
<path d="M16 10C14.8133 10 13.6533 10.3519 12.6666 11.0112C11.6799 11.6705 10.9109 12.6075 10.4567 13.7039C10.0026 14.8003 9.88378 16.0067 10.1153 17.1705C10.3468 18.3344 10.9182 19.4035 11.7574 20.2426C12.5965 21.0818 13.6656 21.6532 14.8295 21.8847C15.9933 22.1162 17.1997 21.9974 18.2961 21.5433C19.3925 21.0892 20.3295 20.3201 20.9888 19.3334C21.6481 18.3467 22 17.1867 22 16C22 15.2121 21.8448 14.4318 21.5433 13.7039C21.2418 12.9759 20.7998 12.3145 20.2427 11.7573C19.6855 11.2002 19.0241 10.7582 18.2961 10.4567C17.5682 10.1552 16.7879 9.99998 16 10ZM16 19.8952C15.2296 19.8952 14.4765 19.6667 13.8359 19.2387C13.1954 18.8107 12.6961 18.2024 12.4013 17.4906C12.1065 16.7788 12.0293 15.9956 12.1796 15.24C12.3299 14.4844 12.7009 13.7904 13.2457 13.2456C13.7904 12.7008 14.4845 12.3299 15.2401 12.1796C15.9957 12.0293 16.7789 12.1064 17.4907 12.4012C18.2024 12.6961 18.8108 13.1953 19.2388 13.8359C19.6668 14.4765 19.8953 15.2296 19.8952 16C19.8953 16.5115 19.7946 17.0181 19.5989 17.4907C19.4031 17.9633 19.1162 18.3928 18.7545 18.7545C18.3928 19.1162 17.9633 19.4031 17.4907 19.5988C17.0181 19.7946 16.5115 19.8953 16 19.8952Z" fill="#596574"/>
<path d="M28.9223 10.6403C28.901 9.56195 28.6968 8.49499 28.3185 7.48491C27.9915 6.61766 27.4798 5.83188 26.8189 5.18201C26.17 4.5205 25.3844 4.00873 24.517 3.6825C23.5069 3.30392 22.4399 3.09975 21.3614 3.0787C19.9752 3.0156 19.5321 3 16.0016 3C12.4711 3 12.0276 3.01464 10.6406 3.0787C9.5622 3.10001 8.4952 3.30418 7.48508 3.6825C6.61756 4.00903 5.83165 4.52074 5.1821 5.18201C4.52019 5.83102 4.00839 6.61705 3.68262 7.48491C3.30428 8.49499 3.10011 9.56195 3.0788 10.6403C3.01472 12.0264 3 12.4696 3 16C3 19.5304 3.01472 19.9735 3.07877 21.3596C3.10009 22.438 3.30427 23.505 3.68262 24.5151C4.00848 25.3829 4.52027 26.1689 5.1821 26.818C5.83197 27.4788 6.61779 27.9905 7.48508 28.3174C8.49523 28.6956 9.56221 28.8998 10.6406 28.9212C12.0276 28.9843 12.47 29 16.0005 29C19.531 29 19.9742 28.9853 21.3604 28.9212C22.4388 28.8999 23.5058 28.6957 24.5159 28.3174C25.3797 27.9835 26.1641 27.4728 26.8189 26.818C27.4738 26.1632 27.9845 25.3788 28.3185 24.5151C28.6972 23.5051 28.9014 22.4381 28.9223 21.3596C28.9854 19.9725 29 19.5304 29 16C29 12.4696 28.9854 12.0264 28.9223 10.6403ZM26.5835 21.2536C26.5735 22.078 26.4222 22.8946 26.1363 23.6678C25.9199 24.2284 25.5885 24.7375 25.1635 25.1624C24.7385 25.5872 24.2292 25.9183 23.6685 26.1345C22.8954 26.4211 22.0787 26.5723 21.2542 26.5817C19.8838 26.6446 19.4722 26.6573 16.0004 26.6573C12.5286 26.6573 12.1182 26.6446 10.7482 26.5817C9.92376 26.5722 9.10707 26.421 8.33393 26.1345C7.76924 25.9258 7.25834 25.5936 6.83856 25.1621C6.40641 24.7433 6.07405 24.2326 5.86612 23.6678C5.57949 22.8948 5.4282 22.0781 5.4189 21.2536C5.35585 19.8833 5.3433 19.4718 5.3433 16.0001C5.3433 12.5284 5.35694 12.118 5.4189 10.7465C5.42929 9.92222 5.58054 9.10576 5.86612 8.33243C6.07479 7.76777 6.40704 7.25688 6.83856 6.83712C7.2576 6.40474 7.76873 6.07237 8.33393 5.86472C9.10704 5.57813 9.92375 5.42686 10.7482 5.41752C12.1186 5.35448 12.5302 5.34192 16.0004 5.34192C19.4707 5.34192 19.8827 5.35556 21.2542 5.41752C22.0786 5.4279 22.8951 5.57915 23.6685 5.86472C24.2294 6.08085 24.7388 6.4121 25.1638 6.83714C25.5889 7.26217 25.9202 7.77155 26.1363 8.33244C26.4229 9.1055 26.5742 9.92214 26.5835 10.7465C26.6466 12.118 26.6591 12.5285 26.6591 16.0001C26.6591 19.4717 26.6466 19.8822 26.5835 21.2536Z" fill="#596574"/>
<path d="M23.5001 8C23.3675 8.00005 23.2401 8.10544 23.1464 8.29299C23.0526 8.48054 23 8.73489 23 9.00009C23 9.26529 23.0527 9.51962 23.1465 9.70714C23.2402 9.89466 23.3674 10 23.5 10C23.6326 10 23.7598 9.89466 23.8535 9.70714C23.9473 9.51962 24 9.26529 24 9.00009C24 8.73489 23.9474 8.48054 23.8536 8.29299C23.7599 8.10544 23.6327 8.00005 23.5001 8Z" fill="#596574"/>
</svg>
