<svg width="32" height="32" viewBox="0 0 32 32" fill="none" xmlns="http://www.w3.org/2000/svg">
<path d="M29.2933 24.44C29.2933 24.92 29.1866 25.4133 28.96 25.8933C28.7333 26.3733 28.44 26.8266 28.0533 27.2533C27.4 27.9733 26.68 28.4933 25.8666 28.8266C25.0666 29.16 24.2 29.3333 23.2666 29.3333C21.9066 29.3333 20.4533 29.0133 18.92 28.36C17.3866 27.7066 15.8533 26.8266 14.3333 25.72C12.7841 24.5868 11.3222 23.3388 9.95996 21.9866C8.61165 20.6293 7.36809 19.1718 6.23996 17.6266C5.14663 16.1066 4.26663 14.5866 3.62663 13.08C2.98663 11.56 2.66663 10.1066 2.66663 8.71996C2.66663 7.81329 2.82663 6.94663 3.14663 6.14663C3.46663 5.33329 3.97329 4.58663 4.67996 3.91996C5.53329 3.07996 6.46663 2.66663 7.45329 2.66663C7.82663 2.66663 8.19996 2.74663 8.53329 2.90663C8.87996 3.06663 9.18663 3.30663 9.42663 3.65329L12.52 8.01329C12.76 8.34663 12.9333 8.65329 13.0533 8.94663C13.1733 9.22663 13.24 9.50663 13.24 9.75996C13.24 10.08 13.1466 10.4 12.96 10.7066C12.7866 11.0133 12.5333 11.3333 12.2133 11.6533L11.2 12.7066C11.0533 12.8533 10.9866 13.0266 10.9866 13.24C10.9866 13.3466 11 13.44 11.0266 13.5466C11.0666 13.6533 11.1066 13.7333 11.1333 13.8133C11.3733 14.2533 11.7866 14.8266 12.3733 15.52C12.9733 16.2133 13.6133 16.92 14.3066 17.6266C15.0266 18.3333 15.72 18.9866 16.4266 19.5866C17.12 20.1733 17.6933 20.5733 18.1466 20.8133C18.2133 20.84 18.2933 20.88 18.3866 20.92C18.4933 20.96 18.6 20.9733 18.72 20.9733C18.9466 20.9733 19.12 20.8933 19.2666 20.7466L20.28 19.7466C20.6133 19.4133 20.9333 19.16 21.24 19C21.5466 18.8133 21.8533 18.72 22.1866 18.72C22.44 18.72 22.7066 18.7733 23 18.8933C23.2933 19.0133 23.6 19.1866 23.9333 19.4133L28.3466 22.5466C28.6933 22.7866 28.9333 23.0666 29.08 23.4C29.2133 23.7333 29.2933 24.0666 29.2933 24.44Z" stroke="#596574" stroke-width="2.08333" stroke-miterlimit="10"/>
</svg>
