<svg width="28" height="28" viewBox="0 0 28 28" fill="none" xmlns="http://www.w3.org/2000/svg">
<path d="M24.5 10.346V5.579C24.5 4.0985 23.828 3.5 22.1585 3.5H17.9165C16.247 3.5 15.575 4.0985 15.575 5.579V10.3355C15.575 11.8265 16.247 12.4145 17.9165 12.4145H22.1585C23.828 12.425 24.5 11.8265 24.5 10.346ZM24.5 22.1585V17.9165C24.5 16.247 23.828 15.575 22.1585 15.575H17.9165C16.247 15.575 15.575 16.247 15.575 17.9165V22.1585C15.575 23.828 16.247 24.5 17.9165 24.5H22.1585C23.828 24.5 24.5 23.828 24.5 22.1585ZM12.425 10.346V5.579C12.425 4.0985 11.753 3.5 10.0835 3.5H5.8415C4.172 3.5 3.5 4.0985 3.5 5.579V10.3355C3.5 11.8265 4.172 12.4145 5.8415 12.4145H10.0835C11.753 12.425 12.425 11.8265 12.425 10.346ZM12.425 22.1585V17.9165C12.425 16.247 11.753 15.575 10.0835 15.575H5.8415C4.172 15.575 3.5 16.247 3.5 17.9165V22.1585C3.5 23.828 4.172 24.5 5.8415 24.5H10.0835C11.753 24.5 12.425 23.828 12.425 22.1585Z" fill="#979AA0"/>
</svg>
