<svg width="32" height="32" viewBox="0 0 32 32" fill="none" xmlns="http://www.w3.org/2000/svg">
<path d="M28.6666 3.33331L21.3333 10.6666M28.6666 3.33331H20M28.6666 3.33331V12M13.6666 28.6666C15.0236 28.6666 16.3673 28.3994 17.621 27.8801C18.8747 27.3608 20.0139 26.5996 20.9734 25.6401C21.933 24.6805 22.6941 23.5414 23.2134 22.2877C23.7327 21.034 24 19.6903 24 18.3333C24 16.9763 23.7327 15.6326 23.2134 14.3789C22.6941 13.1252 21.933 11.9861 20.9734 11.0265C20.0139 10.067 18.8747 9.30586 17.621 8.78656C16.3673 8.26726 15.0236 7.99998 13.6666 7.99998C10.9261 7.99998 8.29775 9.08867 6.35988 11.0265C4.422 12.9644 3.33331 15.5927 3.33331 18.3333C3.33331 21.0739 4.422 23.7022 6.35988 25.6401C8.29775 27.578 10.9261 28.6666 13.6666 28.6666Z" stroke="#9A9A9A" stroke-width="2.5" stroke-linecap="round" stroke-linejoin="round"/>
</svg>
