<svg width="28" height="28" viewBox="0 0 28 28" fill="none" xmlns="http://www.w3.org/2000/svg">
<path d="M14 2.33334C7.57171 2.33334 2.33337 7.57168 2.33337 14C2.33337 20.4283 7.57171 25.6667 14 25.6667C20.4284 25.6667 25.6667 20.4283 25.6667 14C25.6667 7.57168 20.4284 2.33334 14 2.33334ZM18.6667 14.875H14.875V18.6667C14.875 19.145 14.4784 19.5417 14 19.5417C13.5217 19.5417 13.125 19.145 13.125 18.6667V14.875H9.33337C8.85504 14.875 8.45837 14.4783 8.45837 14C8.45837 13.5217 8.85504 13.125 9.33337 13.125H13.125V9.33334C13.125 8.85501 13.5217 8.45834 14 8.45834C14.4784 8.45834 14.875 8.85501 14.875 9.33334V13.125H18.6667C19.145 13.125 19.5417 13.5217 19.5417 14C19.5417 14.4783 19.145 14.875 18.6667 14.875Z" fill="#838383"/>
</svg>
