<svg width="24" height="24" viewBox="0 0 24 24" fill="none" xmlns="http://www.w3.org/2000/svg">
<path d="M15 21H3V4C3 3.73478 3.10536 3.48043 3.29289 3.29289C3.48043 3.10536 3.73478 3 4 3H14C14.2652 3 14.5196 3.10536 14.7071 3.29289C14.8946 3.48043 15 3.73478 15 4V21ZM15 21H21V8.72C21.0114 8.50193 20.9511 8.28614 20.8283 8.10557C20.7055 7.925 20.527 7.78958 20.32 7.72L15 6V21ZM7 7H11M7 11H11M11 21V15H7V21H11Z" stroke="#9A9A9A" stroke-width="2.5" stroke-linecap="round" stroke-linejoin="round"/>
</svg>
