<svg width="32" height="32" viewBox="0 0 32 32" fill="none" xmlns="http://www.w3.org/2000/svg">
<g clip-path="url(#clip0_0_23)">
<path d="M22.6666 13.3333H9.33325V10.6667C9.33325 8.89856 10.0356 7.20287 11.2859 5.95263C12.5361 4.70238 14.2318 4 15.9999 4V4C17.1688 3.99868 18.3175 4.30472 19.3309 4.88744C20.3442 5.47015 21.1865 6.30905 21.7733 7.32" stroke="#979AA0" stroke-width="2.5" stroke-linecap="round" stroke-linejoin="round"/>
<path d="M16.0001 22.6666V21.3333M25.3334 14.6666V18.28C25.3717 20.7557 24.4506 23.1502 22.763 24.9621C21.0754 26.7739 18.7523 27.8625 16.2801 28C15.0311 28.0375 13.7872 27.8238 12.6223 27.3715C11.4574 26.9193 10.3952 26.2378 9.49866 25.3673C8.6021 24.4969 7.88947 23.4553 7.40301 22.3042C6.91656 21.1532 6.66619 19.9162 6.66675 18.6666V14.6666C6.66675 14.313 6.80723 13.9739 7.05727 13.7238C7.30732 13.4738 7.64646 13.3333 8.00008 13.3333H24.0001C24.3537 13.3333 24.6928 13.4738 24.9429 13.7238C25.1929 13.9739 25.3334 14.313 25.3334 14.6666Z" stroke="#979AA0" stroke-width="2.5" stroke-linecap="round" stroke-linejoin="round"/>
<path d="M15.9333 20H16.0667" stroke="#979AA0" stroke-width="3" stroke-linecap="round" stroke-linejoin="round"/>
</g>
<defs>
<clipPath id="clip0_0_23">
<rect width="32" height="32" fill="white"/>
</clipPath>
</defs>
</svg>
