<svg width="32" height="32" viewBox="0 0 32 32" fill="none" xmlns="http://www.w3.org/2000/svg">
<path d="M6.66669 13.2305C6.66669 19.6996 12.326 25.0492 14.8309 27.1003C15.1894 27.3938 15.3708 27.5423 15.6383 27.6176C15.8466 27.6763 16.1531 27.6763 16.3613 27.6176C16.6293 27.5422 16.8094 27.3951 17.1693 27.1005C19.6742 25.0494 25.3332 19.7002 25.3332 13.2311C25.3332 10.7829 24.35 8.43473 22.5996 6.70363C20.8493 4.97252 18.4755 4 16.0001 4C13.5248 4 11.1507 4.97267 9.40036 6.70378C7.65002 8.43488 6.66669 10.7823 6.66669 13.2305Z" stroke="#9A9A9A" stroke-width="2.5" stroke-linecap="round" stroke-linejoin="round"/>
<path d="M13.3334 12C13.3334 13.4728 14.5273 14.6667 16 14.6667C17.4728 14.6667 18.6667 13.4728 18.6667 12C18.6667 10.5272 17.4728 9.33333 16 9.33333C14.5273 9.33333 13.3334 10.5272 13.3334 12Z" stroke="#9A9A9A" stroke-width="2.5" stroke-linecap="round" stroke-linejoin="round"/>
</svg>
